<svg width="193" height="56" viewBox="0 0 193 56" fill="none" xmlns="http://www.w3.org/2000/svg">
<path d="M13.6583 33.3739H4.72139V27.7114H13.6583C15.0394 27.7114 16.1635 27.4855 17.0307 27.0338C17.8979 26.566 18.5323 25.9207 18.9337 25.0979C19.3352 24.2751 19.536 23.3475 19.536 22.315C19.536 21.2664 19.3352 20.2904 18.9337 19.3869C18.5323 18.4835 17.8979 17.7575 17.0307 17.209C16.1635 16.6605 15.0394 16.3863 13.6583 16.3863H7.22662V45.9332H0V10.6995H13.6583C16.4044 10.6995 18.7571 11.1996 20.7163 12.1998C22.6916 13.1839 24.2011 14.5471 25.245 16.2895C26.2888 18.0318 26.8107 20.0242 26.8107 22.2666C26.8107 24.5413 26.2888 26.5095 25.245 28.1712C24.2011 29.8328 22.6916 31.1154 20.7163 32.0188C18.7571 32.9222 16.4044 33.3739 13.6583 33.3739Z" fill="#ffffff"/>
<path d="M37.2065 19.7499V45.9332H30.2448V19.7499H37.2065ZM29.8112 12.9258C29.8112 11.9094 30.1645 11.0705 30.8711 10.4091C31.5777 9.74767 32.5252 9.41695 33.7136 9.41695C34.8859 9.41695 35.8254 9.74767 36.532 10.4091C37.2547 11.0705 37.616 11.9094 37.616 12.9258C37.616 13.9422 37.2547 14.7811 36.532 15.4425C35.8254 16.1039 34.8859 16.4347 33.7136 16.4347C32.5252 16.4347 31.5777 16.1039 30.8711 15.4425C30.1645 14.7811 29.8112 13.9422 29.8112 12.9258Z" fill="#ffffff"/>
<path d="M48.2526 25.3399V45.9332H41.315V19.7499H47.819L48.2526 25.3399ZM47.2409 31.922H45.3619C45.3619 29.9861 45.6109 28.2438 46.1087 26.695C46.6065 25.1302 47.3051 23.7992 48.2044 22.7022C49.1037 21.589 50.1717 20.7421 51.4082 20.1613C52.6608 19.5644 54.058 19.2659 55.5997 19.2659C56.8201 19.2659 57.9363 19.4434 58.948 19.7983C59.9597 20.1532 60.8269 20.7179 61.5496 21.4922C62.2883 22.2666 62.8504 23.291 63.2358 24.5655C63.6373 25.84 63.838 27.3968 63.838 29.2359V45.9332H56.8523V29.2117C56.8523 28.0502 56.6917 27.1467 56.3705 26.5014C56.0493 25.8561 55.5756 25.4044 54.9493 25.1463C54.339 24.872 53.5842 24.7349 52.6849 24.7349C51.7535 24.7349 50.9425 24.9204 50.252 25.2915C49.5775 25.6625 49.0154 26.1788 48.5658 26.8402C48.1322 27.4855 47.8029 28.2438 47.5781 29.1149C47.3533 29.9861 47.2409 30.9218 47.2409 31.922Z" fill="#ffffff"/>
<path d="M74.571 24.7833V56H67.6334V19.7499H74.0651L74.571 24.7833ZM91.0717 32.5512V33.0594C91.0717 34.963 90.8469 36.7295 90.3973 38.3589C89.9637 39.9883 89.3213 41.408 88.4702 42.618C87.619 43.8118 86.5591 44.7475 85.2904 45.425C84.0378 46.0865 82.5925 46.4172 80.9545 46.4172C79.3646 46.4172 77.9835 46.0945 76.8112 45.4492C75.6389 44.8039 74.6513 43.9005 73.8483 42.739C73.0614 41.5613 72.4271 40.1981 71.9453 38.6493C71.4635 37.1006 71.0942 35.4389 70.8372 33.6643V32.3334C71.0942 30.4297 71.4635 28.6874 71.9453 27.1064C72.4271 25.5093 73.0614 24.1299 73.8483 22.9684C74.6513 21.7907 75.6309 20.8792 76.7871 20.2339C77.9594 19.5886 79.3325 19.2659 80.9063 19.2659C82.5604 19.2659 84.0137 19.5805 85.2664 20.2097C86.535 20.8389 87.5949 21.7423 88.4461 22.92C89.3133 24.0977 89.9637 25.5012 90.3973 27.1306C90.8469 28.76 91.0717 30.5669 91.0717 32.5512ZM84.1101 33.0594V32.5512C84.1101 31.438 84.0137 30.4136 83.821 29.4779C83.6444 28.5261 83.3553 27.6952 82.9538 26.9854C82.5684 26.2756 82.0545 25.7271 81.4122 25.3399C80.7859 24.9366 80.023 24.7349 79.1237 24.7349C78.1762 24.7349 77.3653 24.8882 76.6908 25.1947C76.0323 25.5012 75.4944 25.9449 75.0768 26.5256C74.6593 27.1064 74.3461 27.8001 74.1374 28.6067C73.9286 29.4134 73.8001 30.3249 73.752 31.3412V34.7049C73.8323 35.8987 74.0571 36.9715 74.4264 37.9234C74.7958 38.8591 75.3659 39.6012 76.1367 40.1497C76.9076 40.6982 77.9193 40.9724 79.1719 40.9724C80.0873 40.9724 80.8581 40.7708 81.4844 40.3675C82.1107 39.948 82.6166 39.3753 83.002 38.6493C83.4035 37.9234 83.6845 37.0845 83.8451 36.1326C84.0218 35.1808 84.1101 34.1564 84.1101 33.0594Z" fill="#ffffff"/>
<path d="M92.7955 33.1078V32.5996C92.7955 30.6798 93.0685 28.9133 93.6145 27.3C94.1606 25.6706 94.9555 24.259 95.9993 23.0652C97.0432 21.8714 98.3279 20.9437 99.8535 20.2823C101.379 19.6047 103.13 19.2659 105.105 19.2659C107.08 19.2659 108.839 19.6047 110.38 20.2823C111.922 20.9437 113.215 21.8714 114.259 23.0652C115.318 24.259 116.121 25.6706 116.667 27.3C117.213 28.9133 117.486 30.6798 117.486 32.5996V33.1078C117.486 35.0114 117.213 36.7779 116.667 38.4073C116.121 40.0206 115.318 41.4322 114.259 42.6422C113.215 43.836 111.93 44.7636 110.404 45.425C108.879 46.0865 107.128 46.4172 105.153 46.4172C103.178 46.4172 101.419 46.0865 99.8776 45.425C98.352 44.7636 97.0592 43.836 95.9993 42.6422C94.9555 41.4322 94.1606 40.0206 93.6145 38.4073C93.0685 36.7779 92.7955 35.0114 92.7955 33.1078ZM99.7331 32.5996V33.1078C99.7331 34.2048 99.8294 35.2292 100.022 36.181C100.215 37.1329 100.52 37.9718 100.938 38.6977C101.371 39.4076 101.933 39.9641 102.624 40.3675C103.314 40.7708 104.157 40.9724 105.153 40.9724C106.117 40.9724 106.944 40.7708 107.634 40.3675C108.325 39.9641 108.879 39.4076 109.296 38.6977C109.714 37.9718 110.019 37.1329 110.212 36.181C110.42 35.2292 110.525 34.2048 110.525 33.1078V32.5996C110.525 31.5348 110.42 30.5346 110.212 29.5989C110.019 28.6471 109.706 27.8082 109.272 27.0822C108.855 26.3401 108.301 25.7593 107.61 25.3399C106.92 24.9204 106.084 24.7107 105.105 24.7107C104.125 24.7107 103.29 24.9204 102.6 25.3399C101.925 25.7593 101.371 26.3401 100.938 27.0822C100.52 27.8082 100.215 28.6471 100.022 29.5989C99.8294 30.5346 99.7331 31.5348 99.7331 32.5996Z" fill="#ffffff"/>
<path d="M127.593 19.7499V45.9332H120.631V19.7499H127.593ZM120.198 12.9258C120.198 11.9094 120.551 11.0705 121.258 10.4091C121.964 9.74767 122.912 9.41695 124.1 9.41695C125.273 9.41695 126.212 9.74767 126.919 10.4091C127.641 11.0705 128.003 11.9094 128.003 12.9258C128.003 13.9422 127.641 14.7811 126.919 15.4425C126.212 16.1039 125.273 16.4347 124.1 16.4347C122.912 16.4347 121.964 16.1039 121.258 15.4425C120.551 14.7811 120.198 13.9422 120.198 12.9258Z" fill="#ffffff"/>
<path d="M138.639 25.3399V45.9332H131.702V19.7499H138.206L138.639 25.3399ZM137.628 31.922H135.749C135.749 29.9861 135.998 28.2438 136.495 26.695C136.993 25.1302 137.692 23.7992 138.591 22.7022C139.49 21.589 140.558 20.7421 141.795 20.1613C143.047 19.5644 144.445 19.2659 145.986 19.2659C147.207 19.2659 148.323 19.4434 149.335 19.7983C150.346 20.1532 151.214 20.7179 151.936 21.4922C152.675 22.2666 153.237 23.291 153.622 24.5655C154.024 25.84 154.225 27.3968 154.225 29.2359V45.9332H147.239V29.2117C147.239 28.0502 147.078 27.1467 146.757 26.5014C146.436 25.8561 145.962 25.4044 145.336 25.1463C144.726 24.872 143.971 24.7349 143.072 24.7349C142.14 24.7349 141.329 24.9204 140.639 25.2915C139.964 25.6625 139.402 26.1788 138.952 26.8402C138.519 27.4855 138.19 28.2438 137.965 29.1149C137.74 29.9861 137.628 30.9218 137.628 31.922Z" fill="#ffffff"/>
<path d="M170.787 19.7499V24.6865H155.611V19.7499H170.787ZM159.369 13.2888H166.307V38.0443C166.307 38.8026 166.403 39.3834 166.596 39.7867C166.804 40.19 167.11 40.4723 167.511 40.6336C167.913 40.7788 168.418 40.8514 169.029 40.8514C169.462 40.8514 169.848 40.8353 170.185 40.803C170.538 40.7546 170.835 40.7062 171.076 40.6578L171.1 45.788C170.506 45.9816 169.864 46.1349 169.173 46.2478C168.483 46.3607 167.72 46.4172 166.885 46.4172C165.359 46.4172 164.026 46.1671 162.886 45.667C161.762 45.1508 160.895 44.328 160.284 43.1987C159.674 42.0694 159.369 40.5852 159.369 38.7461V13.2888Z" fill="#ffffff"/>
<path d="M193 7.857C193 12.1963 189.498 15.714 185.179 15.714C180.859 15.714 177.358 12.1963 177.358 7.857C177.358 3.5177 180.859 0 185.179 0C189.498 0 193 3.5177 193 7.857Z" fill="#ABAB07"/>
</svg>
